<svg width="25" height="25" viewBox="0 0 25 25" fill="none" xmlns="http://www.w3.org/2000/svg">
<g clip-path="url(#clip0_60_1146)">
<path d="M19.6874 4.95832C17.6666 3.04165 15.0624 1.99998 12.2499 2.08332C9.46869 2.15623 6.87494 3.30207 4.95828 5.31248C3.04161 7.33332 2.02078 9.96873 2.08328 12.75C2.21869 18.4062 6.86453 22.9167 12.4999 22.9167H12.7499C15.5312 22.8437 18.1249 21.6979 20.0416 19.6875C21.9583 17.6666 22.9791 15.0312 22.9166 12.25C22.8437 9.46873 21.6979 6.87498 19.6874 4.95832ZM17.5833 10.625L11.8437 16.3646C11.6354 16.5625 11.3749 16.6666 11.1041 16.6666C10.8333 16.6666 10.5729 16.5625 10.3645 16.3646L7.76036 13.75C7.35411 13.3437 7.35411 12.6875 7.76036 12.2812C8.16661 11.875 8.82286 11.875 9.22911 12.2812L11.1041 14.1562L16.1145 9.15623C16.5208 8.74998 17.177 8.74998 17.5833 9.15623C17.9895 9.56248 17.9895 10.2187 17.5833 10.625Z" fill="#0B0B0C"/>
</g>
<defs>
<clipPath id="clip0_60_1146">
<rect width="25" height="25" fill="white"/>
</clipPath>
</defs>
</svg>
